<svg width="43" height="43" viewBox="0 0 43 43" fill="none" xmlns="http://www.w3.org/2000/svg">
<circle cx="21.3534" cy="21.2206" r="21.2206" fill="#F8F8FC"/>
<path d="M34.3581 21.9056C34.3581 15.1006 28.8415 9.58398 22.0365 9.58398C15.2314 9.58398 9.71484 15.1006 9.71484 21.9056C9.71484 28.0556 14.2207 33.1532 20.1112 34.0776V25.4674H16.9827V21.9056H20.1112V19.191C20.1112 16.1029 21.9508 14.3971 24.7653 14.3971C26.113 14.3971 27.5235 14.6378 27.5235 14.6378V17.6701H25.9698C24.4392 17.6701 23.9617 18.6199 23.9617 19.5953V21.9056H27.3791L26.8328 25.4674H23.9617V34.0776C29.8523 33.1532 34.3581 28.0556 34.3581 21.9056Z" fill="#384D64"/>
</svg>
