<svg width="43" height="43" viewBox="0 0 43 43" fill="none" xmlns="http://www.w3.org/2000/svg">
<circle cx="21.2206" cy="21.2206" r="21.2206" fill="#F8F8FC"/>
<path d="M27.0112 17.9303C26.3765 17.9316 25.8604 17.4177 25.8592 16.783C25.858 16.1483 26.3719 15.6322 27.0068 15.631C27.6418 15.6297 28.1579 16.1439 28.1591 16.7786C28.1601 17.4133 27.6462 17.9291 27.0112 17.9303Z" fill="#384D64"/>
<path fill-rule="evenodd" clip-rule="evenodd" d="M21.913 26.8261C19.1957 26.8314 16.9884 24.633 16.9831 21.9151C16.9778 19.1978 19.1768 16.9901 21.894 16.9848C24.6119 16.9795 26.8196 19.1792 26.8249 21.8961C26.8301 24.614 24.6305 26.8208 21.913 26.8261ZM21.8975 18.7115C20.1338 18.7147 18.7061 20.1477 18.7092 21.9117C18.7126 23.676 20.1459 25.1034 21.9096 25.1C23.6739 25.0966 25.1016 23.6639 25.0981 21.8996C25.0947 20.1352 23.6614 18.7081 21.8975 18.7115Z" fill="#384D64"/>
<path fill-rule="evenodd" clip-rule="evenodd" d="M15.61 12.8386C16.2186 12.6001 16.9151 12.4368 17.9348 12.3886C18.957 12.3396 19.2833 12.3284 21.8853 12.3234C24.488 12.3185 24.8143 12.3284 25.8365 12.3737C26.8565 12.4178 27.5533 12.5787 28.1632 12.8147C28.7941 13.0578 29.3294 13.3851 29.8629 13.9163C30.3963 14.4482 30.7248 14.9817 30.9711 15.6117C31.2092 16.2209 31.3725 16.9168 31.421 17.9371C31.4694 18.959 31.4812 19.2851 31.4862 21.8874C31.4912 24.4895 31.4806 24.8162 31.4359 25.839C31.3915 26.8584 31.231 27.5555 30.995 28.165C30.7512 28.796 30.4246 29.3313 29.8933 29.8648C29.362 30.3985 28.8279 30.7267 28.1979 30.9733C27.5887 31.2111 26.8929 31.3745 25.8732 31.4232C24.851 31.4716 24.5246 31.4831 21.9217 31.4881C19.3199 31.4931 18.9936 31.4831 17.9714 31.4381C16.9514 31.3934 16.2543 31.2329 15.6448 30.9972C15.0138 30.7531 14.4785 30.4268 13.9451 29.8952C13.4113 29.3636 13.0825 28.8298 12.8366 28.1998C12.5981 27.5909 12.4354 26.8947 12.3867 25.8753C12.3379 24.8528 12.3264 24.5262 12.3215 21.9241C12.3165 19.3217 12.3267 18.9957 12.3714 17.9735C12.4165 16.9531 12.5764 16.2563 12.8124 15.6462C13.0561 15.0155 13.3828 14.4805 13.9147 13.9468C14.4459 13.4133 14.98 13.0842 15.61 12.8386ZM16.2667 29.3872C16.6049 29.5173 17.1122 29.6725 18.0466 29.7132C19.0576 29.757 19.3603 29.7666 21.9186 29.7617C24.4778 29.757 24.7805 29.7461 25.7912 29.6986C26.7246 29.6542 27.2319 29.4971 27.5692 29.3655C28.0166 29.1906 28.3352 28.9817 28.6699 28.6466C29.0046 28.3103 29.2117 27.9908 29.385 27.5434C29.5154 27.2049 29.6704 26.6972 29.711 25.7629C29.7554 24.7525 29.7647 24.4495 29.7598 21.8905C29.7551 19.3323 29.7442 19.0292 29.6961 18.0185C29.652 17.0848 29.4952 16.5774 29.3633 16.2405C29.1884 15.7924 28.9801 15.4745 28.6441 15.1394C28.3082 14.8044 27.9886 14.5979 27.5406 14.4246C27.2031 14.2939 26.6951 14.1393 25.7614 14.0986C24.7504 14.0542 24.4473 14.0452 21.8884 14.0502C19.3302 14.0551 19.0275 14.0654 18.0168 14.1132C17.0828 14.1576 16.576 14.3144 16.2382 14.4464C15.791 14.6212 15.4725 14.8289 15.1374 15.1652C14.803 15.5015 14.5959 15.8204 14.4226 16.2688C14.2929 16.6066 14.1367 17.1146 14.0966 18.0483C14.0525 19.0593 14.0432 19.3624 14.0482 21.9207C14.0528 24.4796 14.0637 24.7826 14.1112 25.7927C14.155 26.727 14.313 27.2338 14.4444 27.5719C14.6192 28.0188 14.8275 28.3374 15.1632 28.6724C15.4995 29.0062 15.819 29.2139 16.2667 29.3872Z" fill="#384D64"/>
</svg>
