<svg width="43" height="43" viewBox="0 0 43 43" fill="none" xmlns="http://www.w3.org/2000/svg">
<circle cx="21.4862" cy="21.2206" r="21.2206" fill="#F8F8FC"/>
<g clip-path="url(#clip0_6808_266)">
<path d="M30.3341 12.3223H14.001C13.2186 12.3223 12.5859 12.94 12.5859 13.7036V30.1042C12.5859 30.8678 13.2186 31.4893 14.001 31.4893H30.3341C31.1165 31.4893 31.7529 30.8678 31.7529 30.1079V13.7036C31.7529 12.94 31.1165 12.3223 30.3341 12.3223ZM18.2724 28.6554H15.4273V19.5061H18.2724V28.6554ZM16.8498 18.2595C15.9364 18.2595 15.1989 17.5221 15.1989 16.6124C15.1989 15.7027 15.9364 14.9652 16.8498 14.9652C17.7595 14.9652 18.497 15.7027 18.497 16.6124C18.497 17.5183 17.7595 18.2595 16.8498 18.2595ZM28.9191 28.6554H26.0777V24.2081C26.0777 23.1486 26.059 21.7822 24.599 21.7822C23.1203 21.7822 22.8957 22.939 22.8957 24.1332V28.6554H20.0581V19.5061H22.7834V20.7565H22.8208C23.1989 20.0377 24.1273 19.2778 25.5087 19.2778C28.3875 19.2778 28.9191 21.172 28.9191 23.6353V28.6554Z" fill="#384D64"/>
</g>
<defs>
<clipPath id="clip0_6808_266">
<rect width="19.167" height="19.167" fill="white" transform="translate(12.5859 12.3223)"/>
</clipPath>
</defs>
</svg>
