<svg width="133" height="28" viewBox="0 0 133 28" fill="none" xmlns="http://www.w3.org/2000/svg">
<path d="M27.8915 0C26.9431 0 26.176 0.760727 26.176 1.70131V18.7435L18.3359 2.47176C17.7918 1.35375 16.6767 0.641636 15.4243 0.61247C14.1793 0.583305 13.025 1.24438 12.4295 2.33565L0.207361 24.7127C-0.243585 25.539 0.065215 26.572 0.898485 27.0192C1.73175 27.4688 2.77334 27.1601 3.22429 26.3338L12.1403 10.011L7.62346 26.2998C7.51562 26.6886 7.746 27.0897 8.13813 27.1966C8.2043 27.2136 8.26802 27.2233 8.33419 27.2233C8.65769 27.2233 8.95179 27.0119 9.04247 26.6862L14.694 6.2997V26.4918C14.694 26.8952 15.0224 27.2209 15.4292 27.2209C15.8361 27.2209 16.1645 26.8952 16.1645 26.4918V6.86842L21.1126 26.6668C21.2107 27.0581 21.6101 27.2938 22.0023 27.199C22.3968 27.1018 22.637 26.7057 22.539 26.3168L18.7868 11.304L25.9309 26.1369C26.2593 26.815 26.9357 27.2258 27.666 27.2258C27.8082 27.2258 27.9552 27.2112 28.0998 27.1772C28.9846 26.9779 29.6046 26.2098 29.6046 25.3106V1.70131C29.6046 0.760727 28.8375 0 27.8891 0H27.8915Z" fill="#704ED9"/>
<path d="M128.711 2.96289H132.999V26.5472H128.711V2.96289Z" fill="#F4B400"/>
<path d="M121.442 26.5472C121.125 25.617 120.796 24.6981 120.455 23.7906C120.115 22.8831 119.786 21.9529 119.468 21H109.531C109.213 21.9529 108.884 22.8944 108.544 23.8246C108.226 24.7322 107.909 25.6397 107.591 26.5472H103.133C104.018 24.0288 104.857 21.7033 105.651 19.5706C106.445 17.4379 107.217 15.4187 107.965 13.5129C108.737 11.6071 109.497 9.79202 110.246 8.06772C110.994 6.34342 111.766 4.64181 112.56 2.96289H116.61C117.404 4.64181 118.175 6.34342 118.924 8.06772C119.672 9.79202 120.421 11.6071 121.17 13.5129C121.941 15.4187 122.724 17.4379 123.518 19.5706C124.335 21.7033 125.186 24.0288 126.071 26.5472H121.442ZM114.5 7.52321C113.978 8.72568 113.377 10.1891 112.696 11.9134C112.038 13.6377 111.346 15.5094 110.62 17.5287H118.379C117.653 15.5094 116.95 13.6263 116.269 11.8793C115.589 10.1323 114.999 8.6803 114.5 7.52321Z" fill="#F4B400"/>
<path d="M94.7354 12.4569C94.395 12.3435 93.9186 12.23 93.306 12.1166C92.7161 11.9805 92.0241 11.9124 91.23 11.9124C90.7763 11.9124 90.2885 11.9578 89.7667 12.0485C89.2675 12.1393 88.9158 12.2187 88.7117 12.2868V26.5463H84.5938V9.59821C85.3878 9.30326 86.3748 9.031 87.5546 8.78143C88.757 8.50918 90.0843 8.37305 91.5363 8.37305C91.8086 8.37305 92.1262 8.39574 92.4892 8.44111C92.8522 8.4638 93.2152 8.50918 93.5783 8.57724C93.9413 8.62262 94.2929 8.69068 94.6333 8.78143C94.9736 8.8495 95.2458 8.91756 95.45 8.98563L94.7354 12.4569Z" fill="#704ED9"/>
<path d="M73.0172 23.6532C74.2877 23.6532 75.252 23.5852 75.91 23.449V18.8887C75.6831 18.8206 75.3541 18.7526 74.923 18.6845C74.4919 18.6164 74.0155 18.5824 73.4937 18.5824C73.0399 18.5824 72.5748 18.6164 72.0983 18.6845C71.6446 18.7526 71.2249 18.8774 70.8392 19.0589C70.4761 19.2404 70.1812 19.5013 69.9543 19.8416C69.7274 20.1592 69.614 20.5676 69.614 21.0668C69.614 22.0424 69.9203 22.723 70.5329 23.1087C71.1454 23.4717 71.9736 23.6532 73.0172 23.6532ZM72.6769 8.30469C74.0382 8.30469 75.1839 8.47485 76.1141 8.81517C77.0444 9.15549 77.7817 9.63194 78.3262 10.2445C78.8934 10.8571 79.2905 11.6058 79.5174 12.4906C79.7669 13.3528 79.8917 14.3057 79.8917 15.3494V26.1376C79.2565 26.2737 78.2922 26.4325 76.999 26.614C75.7284 26.8182 74.2877 26.9203 72.6769 26.9203C71.6105 26.9203 70.635 26.8182 69.7501 26.614C68.8653 26.4098 68.1052 26.0808 67.47 25.6271C66.8574 25.1733 66.3696 24.5834 66.0066 23.8574C65.6663 23.1314 65.4961 22.2352 65.4961 21.1689C65.4961 20.1479 65.6889 19.2857 66.0746 18.5824C66.483 17.8791 67.0275 17.3119 67.7082 16.8808C68.3888 16.427 69.1716 16.1094 70.0564 15.9279C70.9639 15.7237 71.9055 15.6216 72.8811 15.6216C73.3348 15.6216 73.8113 15.6556 74.3104 15.7237C74.8096 15.7691 75.3427 15.8598 75.91 15.996V15.3153C75.91 14.8389 75.8532 14.3851 75.7398 13.954C75.6263 13.523 75.4222 13.1486 75.1272 12.831C74.855 12.4906 74.4806 12.2297 74.0041 12.0482C73.5504 11.8667 72.9718 11.776 72.2685 11.776C71.3156 11.776 70.4421 11.844 69.648 11.9802C68.8539 12.1163 68.2073 12.2751 67.7082 12.4566L67.1977 9.12146C67.7195 8.93996 68.4796 8.75845 69.4779 8.57695C70.4761 8.39544 71.5425 8.30469 72.6769 8.30469Z" fill="#704ED9"/>
<path d="M60.7176 0.136719C61.6705 0.136719 62.51 0.227471 63.236 0.408977C63.962 0.567793 64.5065 0.715266 64.8695 0.851394L64.0868 4.25462C63.7011 4.07311 63.2473 3.92564 62.7255 3.8122C62.2264 3.69876 61.6819 3.64204 61.092 3.64204C60.434 3.64204 59.8781 3.74413 59.4244 3.94833C58.9706 4.12983 58.6076 4.39075 58.3354 4.73107C58.0631 5.07139 57.8703 5.49112 57.7568 5.99026C57.6434 6.46671 57.5866 6.98854 57.5866 7.55574V8.74687H64.0528V12.1841H57.5866V26.5457H53.4688V7.48768C53.4688 5.19618 54.07 3.40381 55.2725 2.11059C56.4749 0.794675 58.29 0.136719 60.7176 0.136719Z" fill="#704ED9"/>
<path d="M41.8922 23.6532C43.1627 23.6532 44.127 23.5852 44.785 23.449V18.8887C44.5581 18.8206 44.2291 18.7526 43.798 18.6845C43.3669 18.6164 42.8905 18.5824 42.3687 18.5824C41.9149 18.5824 41.4498 18.6164 40.9733 18.6845C40.5196 18.7526 40.0999 18.8774 39.7142 19.0589C39.3511 19.2404 39.0562 19.5013 38.8293 19.8416C38.6024 20.1592 38.489 20.5676 38.489 21.0668C38.489 22.0424 38.7953 22.723 39.4079 23.1087C40.0204 23.4717 40.8486 23.6532 41.8922 23.6532ZM41.5519 8.30469C42.9132 8.30469 44.0589 8.47485 44.9891 8.81517C45.9194 9.15549 46.6567 9.63194 47.2012 10.2445C47.7684 10.8571 48.1655 11.6058 48.3924 12.4906C48.6419 13.3528 48.7667 14.3057 48.7667 15.3494V26.1376C48.1315 26.2737 47.1672 26.4325 45.874 26.614C44.6034 26.8182 43.1628 26.9203 41.5519 26.9203C40.4855 26.9203 39.51 26.8182 38.6251 26.614C37.7403 26.4098 36.9802 26.0808 36.345 25.6271C35.7324 25.1733 35.2446 24.5834 34.8816 23.8574C34.5413 23.1314 34.3711 22.2352 34.3711 21.1689C34.3711 20.1479 34.5639 19.2857 34.9496 18.5824C35.358 17.8791 35.9025 17.3119 36.5832 16.8808C37.2638 16.427 38.0466 16.1094 38.9314 15.9279C39.8389 15.7237 40.7805 15.6216 41.7561 15.6216C42.2098 15.6216 42.6863 15.6556 43.1854 15.7237C43.6846 15.7691 44.2177 15.8598 44.785 15.996V15.3153C44.785 14.8389 44.7282 14.3851 44.6148 13.954C44.5014 13.523 44.2972 13.1486 44.0022 12.831C43.73 12.4906 43.3556 12.2297 42.8791 12.0482C42.4254 11.8667 41.8468 11.776 41.1435 11.776C40.1906 11.776 39.3171 11.844 38.523 11.9802C37.7289 12.1163 37.0823 12.2751 36.5832 12.4566L36.0727 9.12146C36.5945 8.93996 37.3546 8.75845 38.3529 8.57695C39.3511 8.39544 40.4175 8.30469 41.5519 8.30469Z" fill="#704ED9"/>
</svg>
