<svg width="242" height="64" viewBox="0 0 242 64" fill="none" xmlns="http://www.w3.org/2000/svg">
<path d="M79.8164 20H78.6396V13.8574H76.5498V12.8613H81.9014V13.8574H79.8164V20ZM85.0312 14.4922C85.513 14.4922 85.9264 14.5915 86.2715 14.79C86.6165 14.9886 86.8818 15.2702 87.0674 15.6348C87.2529 15.9993 87.3457 16.4355 87.3457 16.9434V17.5586H83.7373C83.7503 18.0827 83.8903 18.4863 84.1572 18.7695C84.4274 19.0527 84.805 19.1943 85.29 19.1943C85.6351 19.1943 85.9443 19.1618 86.2178 19.0967C86.4945 19.0283 86.7793 18.929 87.0723 18.7988V19.7314C86.8021 19.8584 86.527 19.9512 86.2471 20.0098C85.9671 20.0684 85.6318 20.0977 85.2412 20.0977C84.7106 20.0977 84.2435 19.9951 83.8398 19.79C83.4395 19.5817 83.1253 19.2725 82.8975 18.8623C82.6729 18.4521 82.5605 17.9427 82.5605 17.334C82.5605 16.7285 82.6631 16.2142 82.8682 15.791C83.0732 15.3678 83.3613 15.0456 83.7324 14.8242C84.1035 14.6029 84.5365 14.4922 85.0312 14.4922ZM85.0312 15.3564C84.6699 15.3564 84.377 15.4736 84.1523 15.708C83.931 15.9424 83.8008 16.2858 83.7617 16.7383H86.2227C86.2194 16.4681 86.1738 16.2288 86.0859 16.0205C86.0013 15.8122 85.8711 15.6494 85.6953 15.5322C85.5228 15.415 85.3014 15.3564 85.0312 15.3564ZM86.6279 12.3389V12.4365C86.5498 12.5309 86.444 12.6449 86.3105 12.7783C86.1771 12.9085 86.0322 13.0469 85.876 13.1934C85.7197 13.3366 85.5651 13.4749 85.4121 13.6084C85.2591 13.7386 85.1208 13.8493 84.9971 13.9404H84.2305V13.8135C84.3379 13.6898 84.4567 13.5417 84.5869 13.3691C84.7204 13.1966 84.8506 13.0192 84.9775 12.8369C85.1077 12.6546 85.2168 12.4886 85.3047 12.3389H86.6279ZM89.792 20H88.6396V12.4023H89.792V20ZM93.5859 14.4922C94.0677 14.4922 94.4811 14.5915 94.8262 14.79C95.1712 14.9886 95.4365 15.2702 95.6221 15.6348C95.8076 15.9993 95.9004 16.4355 95.9004 16.9434V17.5586H92.292C92.305 18.0827 92.445 18.4863 92.7119 18.7695C92.9821 19.0527 93.3597 19.1943 93.8447 19.1943C94.1898 19.1943 94.499 19.1618 94.7725 19.0967C95.0492 19.0283 95.334 18.929 95.627 18.7988V19.7314C95.3568 19.8584 95.0817 19.9512 94.8018 20.0098C94.5218 20.0684 94.1865 20.0977 93.7959 20.0977C93.2653 20.0977 92.7982 19.9951 92.3945 19.79C91.9941 19.5817 91.68 19.2725 91.4521 18.8623C91.2275 18.4521 91.1152 17.9427 91.1152 17.334C91.1152 16.7285 91.2178 16.2142 91.4229 15.791C91.6279 15.3678 91.916 15.0456 92.2871 14.8242C92.6582 14.6029 93.0911 14.4922 93.5859 14.4922ZM93.5859 15.3564C93.2246 15.3564 92.9316 15.4736 92.707 15.708C92.4857 15.9424 92.3555 16.2858 92.3164 16.7383H94.7773C94.7741 16.4681 94.7285 16.2288 94.6406 16.0205C94.556 15.8122 94.4258 15.6494 94.25 15.5322C94.0775 15.415 93.8561 15.3564 93.5859 15.3564ZM95.1826 12.3389V12.4365C95.1045 12.5309 94.9987 12.6449 94.8652 12.7783C94.7318 12.9085 94.5869 13.0469 94.4307 13.1934C94.2744 13.3366 94.1198 13.4749 93.9668 13.6084C93.8138 13.7386 93.6755 13.8493 93.5518 13.9404H92.7852V13.8135C92.8926 13.6898 93.0114 13.5417 93.1416 13.3691C93.2751 13.1966 93.4053 13.0192 93.5322 12.8369C93.6624 12.6546 93.7715 12.4886 93.8594 12.3389H95.1826ZM99.3721 20.0977C98.861 20.0977 98.4183 19.9984 98.0439 19.7998C97.6696 19.6012 97.3815 19.2969 97.1797 18.8867C96.9779 18.4766 96.877 17.9557 96.877 17.3242C96.877 16.6667 96.9876 16.1296 97.209 15.7129C97.4303 15.2962 97.7363 14.9886 98.127 14.79C98.5208 14.5915 98.9717 14.4922 99.4795 14.4922C99.8018 14.4922 100.093 14.5247 100.354 14.5898C100.617 14.6517 100.84 14.7282 101.022 14.8193L100.681 15.7373C100.482 15.6559 100.279 15.5876 100.07 15.5322C99.862 15.4769 99.6618 15.4492 99.4697 15.4492C99.154 15.4492 98.8903 15.5192 98.6787 15.6592C98.4704 15.7992 98.3141 16.0075 98.21 16.2842C98.109 16.5609 98.0586 16.9043 98.0586 17.3145C98.0586 17.7116 98.1107 18.0469 98.2148 18.3203C98.319 18.5905 98.4736 18.7956 98.6787 18.9355C98.8838 19.0723 99.1361 19.1406 99.4355 19.1406C99.7318 19.1406 99.9971 19.1048 100.231 19.0332C100.466 18.9616 100.687 18.8688 100.896 18.7549V19.751C100.69 19.8682 100.471 19.9544 100.236 20.0098C100.002 20.0684 99.7139 20.0977 99.3721 20.0977ZM103.312 12.4023V14.3115C103.312 14.5101 103.306 14.7038 103.293 14.8926C103.283 15.0814 103.272 15.2279 103.259 15.332H103.322C103.436 15.1432 103.576 14.9886 103.742 14.8682C103.908 14.7445 104.094 14.6517 104.299 14.5898C104.507 14.528 104.729 14.4971 104.963 14.4971C105.376 14.4971 105.728 14.5671 106.018 14.707C106.307 14.8438 106.529 15.057 106.682 15.3467C106.838 15.6364 106.916 16.0124 106.916 16.4746V20H105.769V16.6895C105.769 16.2695 105.682 15.9554 105.51 15.7471C105.337 15.5355 105.07 15.4297 104.709 15.4297C104.361 15.4297 104.084 15.5029 103.879 15.6494C103.677 15.7926 103.532 16.0059 103.444 16.2891C103.356 16.569 103.312 16.9108 103.312 17.3145V20H102.165V12.4023H103.312ZM110.642 14.4922C111.325 14.4922 111.841 14.6436 112.189 14.9463C112.541 15.249 112.717 15.721 112.717 16.3623V20H111.901L111.682 19.2334H111.643C111.49 19.4287 111.332 19.5898 111.169 19.7168C111.006 19.8438 110.817 19.9382 110.603 20C110.391 20.0651 110.132 20.0977 109.826 20.0977C109.504 20.0977 109.216 20.0391 108.962 19.9219C108.708 19.8014 108.508 19.6191 108.361 19.375C108.215 19.1309 108.142 18.8216 108.142 18.4473C108.142 17.8906 108.348 17.4723 108.762 17.1924C109.178 16.9124 109.807 16.7578 110.646 16.7285L111.584 16.6943V16.4111C111.584 16.0368 111.496 15.7699 111.32 15.6104C111.148 15.4508 110.904 15.3711 110.588 15.3711C110.318 15.3711 110.056 15.4102 109.802 15.4883C109.548 15.5664 109.3 15.6624 109.06 15.7764L108.688 14.9658C108.952 14.8258 109.252 14.7119 109.587 14.624C109.925 14.5361 110.277 14.4922 110.642 14.4922ZM111.579 17.417L110.881 17.4414C110.308 17.4609 109.906 17.5586 109.675 17.7344C109.444 17.9102 109.328 18.151 109.328 18.457C109.328 18.724 109.408 18.9193 109.567 19.043C109.727 19.1634 109.937 19.2236 110.197 19.2236C110.594 19.2236 110.923 19.1113 111.184 18.8867C111.447 18.6589 111.579 18.3252 111.579 17.8857V17.417ZM117.062 14.4922C117.154 14.4922 117.253 14.4971 117.36 14.5068C117.468 14.5166 117.561 14.5296 117.639 14.5459L117.531 15.6201C117.463 15.6006 117.378 15.5859 117.277 15.5762C117.18 15.5664 117.092 15.5615 117.014 15.5615C116.809 15.5615 116.613 15.5957 116.428 15.6641C116.242 15.7292 116.078 15.8301 115.935 15.9668C115.791 16.1003 115.679 16.2679 115.598 16.4697C115.516 16.6715 115.476 16.9059 115.476 17.1729V20H114.323V14.5947H115.222L115.378 15.5469H115.432C115.539 15.3548 115.673 15.179 115.832 15.0195C115.992 14.86 116.174 14.7331 116.379 14.6387C116.587 14.541 116.815 14.4922 117.062 14.4922ZM120.183 22.4023C119.45 22.4023 118.889 22.2705 118.498 22.0068C118.107 21.7432 117.912 21.3737 117.912 20.8984C117.912 20.5664 118.016 20.2848 118.225 20.0537C118.433 19.8258 118.731 19.668 119.118 19.5801C118.972 19.515 118.845 19.4141 118.737 19.2773C118.633 19.1374 118.581 18.9827 118.581 18.8135C118.581 18.6117 118.638 18.4391 118.752 18.2959C118.866 18.1527 119.037 18.0143 119.265 17.8809C118.981 17.7604 118.754 17.5651 118.581 17.2949C118.412 17.0215 118.327 16.7008 118.327 16.333C118.327 15.9424 118.41 15.6104 118.576 15.3369C118.742 15.0602 118.985 14.8503 119.304 14.707C119.623 14.5605 120.008 14.4873 120.461 14.4873C120.559 14.4873 120.664 14.4938 120.778 14.5068C120.896 14.5166 121.003 14.5296 121.101 14.5459C121.201 14.5589 121.278 14.5736 121.33 14.5898H123.2V15.2295L122.282 15.4004C122.37 15.5241 122.44 15.6657 122.492 15.8252C122.544 15.9814 122.57 16.1523 122.57 16.3379C122.57 16.8978 122.377 17.3389 121.989 17.6611C121.605 17.9801 121.075 18.1396 120.397 18.1396C120.235 18.1331 120.077 18.1201 119.924 18.1006C119.807 18.1722 119.717 18.252 119.655 18.3398C119.593 18.4245 119.562 18.5205 119.562 18.6279C119.562 18.7158 119.593 18.7874 119.655 18.8428C119.717 18.8949 119.808 18.9339 119.929 18.96C120.052 18.986 120.202 18.999 120.378 18.999H121.311C121.903 18.999 122.355 19.1243 122.668 19.375C122.98 19.6257 123.137 19.9935 123.137 20.4785C123.137 21.0938 122.883 21.5674 122.375 21.8994C121.867 22.2347 121.136 22.4023 120.183 22.4023ZM120.227 21.5967C120.627 21.5967 120.964 21.5576 121.237 21.4795C121.511 21.4014 121.717 21.2891 121.857 21.1426C121.997 20.9993 122.067 20.8285 122.067 20.6299C122.067 20.4541 122.023 20.319 121.936 20.2246C121.848 20.1302 121.716 20.0651 121.54 20.0293C121.364 19.9935 121.146 19.9756 120.886 19.9756H120.036C119.825 19.9756 119.637 20.0081 119.475 20.0732C119.312 20.1416 119.185 20.2393 119.094 20.3662C119.006 20.4932 118.962 20.6462 118.962 20.8252C118.962 21.0726 119.071 21.263 119.289 21.3965C119.51 21.5299 119.823 21.5967 120.227 21.5967ZM120.451 17.3877C120.786 17.3877 121.035 17.2965 121.198 17.1143C121.361 16.9287 121.442 16.6683 121.442 16.333C121.442 15.9684 121.358 15.695 121.188 15.5127C121.022 15.3304 120.775 15.2393 120.446 15.2393C120.124 15.2393 119.878 15.332 119.709 15.5176C119.543 15.7031 119.46 15.9782 119.46 16.3428C119.46 16.6715 119.543 16.9287 119.709 17.1143C119.878 17.2965 120.126 17.3877 120.451 17.3877ZM126.34 14.4922C126.822 14.4922 127.235 14.5915 127.58 14.79C127.925 14.9886 128.19 15.2702 128.376 15.6348C128.562 15.9993 128.654 16.4355 128.654 16.9434V17.5586H125.046C125.059 18.0827 125.199 18.4863 125.466 18.7695C125.736 19.0527 126.114 19.1943 126.599 19.1943C126.944 19.1943 127.253 19.1618 127.526 19.0967C127.803 19.0283 128.088 18.929 128.381 18.7988V19.7314C128.111 19.8584 127.836 19.9512 127.556 20.0098C127.276 20.0684 126.94 20.0977 126.55 20.0977C126.019 20.0977 125.552 19.9951 125.148 19.79C124.748 19.5817 124.434 19.2725 124.206 18.8623C123.981 18.4521 123.869 17.9427 123.869 17.334C123.869 16.7285 123.972 16.2142 124.177 15.791C124.382 15.3678 124.67 15.0456 125.041 14.8242C125.412 14.6029 125.845 14.4922 126.34 14.4922ZM126.34 15.3564C125.979 15.3564 125.686 15.4736 125.461 15.708C125.24 15.9424 125.109 16.2858 125.07 16.7383H127.531C127.528 16.4681 127.482 16.2288 127.395 16.0205C127.31 15.8122 127.18 15.6494 127.004 15.5322C126.831 15.415 126.61 15.3564 126.34 15.3564ZM132.688 14.4922C132.779 14.4922 132.878 14.4971 132.985 14.5068C133.093 14.5166 133.186 14.5296 133.264 14.5459L133.156 15.6201C133.088 15.6006 133.003 15.5859 132.902 15.5762C132.805 15.5664 132.717 15.5615 132.639 15.5615C132.434 15.5615 132.238 15.5957 132.053 15.6641C131.867 15.7292 131.703 15.8301 131.56 15.9668C131.416 16.1003 131.304 16.2679 131.223 16.4697C131.141 16.6715 131.101 16.9059 131.101 17.1729V20H129.948V14.5947H130.847L131.003 15.5469H131.057C131.164 15.3548 131.298 15.179 131.457 15.0195C131.617 14.86 131.799 14.7331 132.004 14.6387C132.212 14.541 132.44 14.4922 132.688 14.4922ZM138.015 20H136.862V12.4023H138.015V20ZM140.573 12.8613L140.646 12.9688C140.588 13.2064 140.511 13.4603 140.417 13.7305C140.326 14.0007 140.227 14.2708 140.119 14.541C140.012 14.8112 139.903 15.0667 139.792 15.3076H138.962C139.007 15.1156 139.055 14.9137 139.104 14.7021C139.152 14.4873 139.2 14.2725 139.245 14.0576C139.291 13.8395 139.331 13.6296 139.367 13.4277C139.403 13.2227 139.434 13.0339 139.46 12.8613H140.573ZM143.708 14.4922C144.392 14.4922 144.908 14.6436 145.256 14.9463C145.607 15.249 145.783 15.721 145.783 16.3623V20H144.968L144.748 19.2334H144.709C144.556 19.4287 144.398 19.5898 144.235 19.7168C144.073 19.8438 143.884 19.9382 143.669 20C143.457 20.0651 143.199 20.0977 142.893 20.0977C142.57 20.0977 142.282 20.0391 142.028 19.9219C141.774 19.8014 141.574 19.6191 141.428 19.375C141.281 19.1309 141.208 18.8216 141.208 18.4473C141.208 17.8906 141.415 17.4723 141.828 17.1924C142.245 16.9124 142.873 16.7578 143.713 16.7285L144.65 16.6943V16.4111C144.65 16.0368 144.562 15.7699 144.387 15.6104C144.214 15.4508 143.97 15.3711 143.654 15.3711C143.384 15.3711 143.122 15.4102 142.868 15.4883C142.614 15.5664 142.367 15.6624 142.126 15.7764L141.755 14.9658C142.019 14.8258 142.318 14.7119 142.653 14.624C142.992 14.5361 143.343 14.4922 143.708 14.4922ZM144.646 17.417L143.947 17.4414C143.374 17.4609 142.972 17.5586 142.741 17.7344C142.51 17.9102 142.395 18.151 142.395 18.457C142.395 18.724 142.474 18.9193 142.634 19.043C142.793 19.1634 143.003 19.2236 143.264 19.2236C143.661 19.2236 143.99 19.1113 144.25 18.8867C144.514 18.6589 144.646 18.3252 144.646 17.8857V17.417ZM150.163 14.4922C150.804 14.4922 151.319 14.7266 151.706 15.1953C152.097 15.6641 152.292 16.3607 152.292 17.2852C152.292 17.8971 152.201 18.4131 152.019 18.833C151.84 19.2497 151.587 19.5654 151.262 19.7803C150.939 19.9919 150.563 20.0977 150.134 20.0977C149.86 20.0977 149.623 20.0618 149.421 19.9902C149.219 19.9186 149.047 19.8258 148.903 19.7119C148.76 19.5947 148.64 19.4678 148.542 19.3311H148.474C148.49 19.4613 148.505 19.6061 148.518 19.7656C148.534 19.9219 148.542 20.0651 148.542 20.1953V22.3975H147.39V14.5947H148.327L148.488 15.3418H148.542C148.643 15.1888 148.765 15.0472 148.908 14.917C149.055 14.7868 149.23 14.6842 149.436 14.6094C149.644 14.5312 149.886 14.4922 150.163 14.4922ZM149.855 15.4297C149.54 15.4297 149.286 15.4932 149.094 15.6201C148.905 15.7438 148.767 15.931 148.679 16.1816C148.594 16.4323 148.549 16.7464 148.542 17.124V17.2852C148.542 17.6855 148.583 18.0257 148.664 18.3057C148.749 18.5824 148.887 18.7939 149.079 18.9404C149.274 19.0837 149.538 19.1553 149.87 19.1553C150.15 19.1553 150.381 19.0788 150.563 18.9258C150.749 18.7728 150.887 18.5547 150.979 18.2715C151.07 17.9883 151.115 17.6546 151.115 17.2705C151.115 16.6878 151.011 16.2354 150.803 15.9131C150.598 15.5908 150.282 15.4297 149.855 15.4297ZM156.394 14.4922C157.035 14.4922 157.549 14.7266 157.937 15.1953C158.327 15.6641 158.522 16.3607 158.522 17.2852C158.522 17.8971 158.431 18.4131 158.249 18.833C158.07 19.2497 157.818 19.5654 157.492 19.7803C157.17 19.9919 156.794 20.0977 156.364 20.0977C156.091 20.0977 155.853 20.0618 155.651 19.9902C155.45 19.9186 155.277 19.8258 155.134 19.7119C154.991 19.5947 154.87 19.4678 154.772 19.3311H154.704C154.72 19.4613 154.735 19.6061 154.748 19.7656C154.764 19.9219 154.772 20.0651 154.772 20.1953V22.3975H153.62V14.5947H154.558L154.719 15.3418H154.772C154.873 15.1888 154.995 15.0472 155.139 14.917C155.285 14.7868 155.461 14.6842 155.666 14.6094C155.874 14.5312 156.117 14.4922 156.394 14.4922ZM156.086 15.4297C155.77 15.4297 155.516 15.4932 155.324 15.6201C155.135 15.7438 154.997 15.931 154.909 16.1816C154.825 16.4323 154.779 16.7464 154.772 17.124V17.2852C154.772 17.6855 154.813 18.0257 154.895 18.3057C154.979 18.5824 155.118 18.7939 155.31 18.9404C155.505 19.0837 155.769 19.1553 156.101 19.1553C156.381 19.1553 156.612 19.0788 156.794 18.9258C156.979 18.7728 157.118 18.5547 157.209 18.2715C157.3 17.9883 157.346 17.6546 157.346 17.2705C157.346 16.6878 157.242 16.2354 157.033 15.9131C156.828 15.5908 156.512 15.4297 156.086 15.4297ZM161.003 20H159.851V12.4023H161.003V20ZM163.791 14.5947V20H162.644V14.5947H163.791ZM163.225 12.5244C163.4 12.5244 163.552 12.5716 163.679 12.666C163.809 12.7604 163.874 12.9232 163.874 13.1543C163.874 13.3822 163.809 13.5449 163.679 13.6426C163.552 13.737 163.4 13.7842 163.225 13.7842C163.042 13.7842 162.888 13.737 162.761 13.6426C162.637 13.5449 162.575 13.3822 162.575 13.1543C162.575 12.9232 162.637 12.7604 162.761 12.666C162.888 12.5716 163.042 12.5244 163.225 12.5244ZM167.614 20.0977C167.103 20.0977 166.66 19.9984 166.286 19.7998C165.912 19.6012 165.624 19.2969 165.422 18.8867C165.22 18.4766 165.119 17.9557 165.119 17.3242C165.119 16.6667 165.23 16.1296 165.451 15.7129C165.673 15.2962 165.979 14.9886 166.369 14.79C166.763 14.5915 167.214 14.4922 167.722 14.4922C168.044 14.4922 168.335 14.5247 168.596 14.5898C168.859 14.6517 169.082 14.7282 169.265 14.8193L168.923 15.7373C168.724 15.6559 168.521 15.5876 168.312 15.5322C168.104 15.4769 167.904 15.4492 167.712 15.4492C167.396 15.4492 167.132 15.5192 166.921 15.6592C166.713 15.7992 166.556 16.0075 166.452 16.2842C166.351 16.5609 166.301 16.9043 166.301 17.3145C166.301 17.7116 166.353 18.0469 166.457 18.3203C166.561 18.5905 166.716 18.7956 166.921 18.9355C167.126 19.0723 167.378 19.1406 167.678 19.1406C167.974 19.1406 168.239 19.1048 168.474 19.0332C168.708 18.9616 168.929 18.8688 169.138 18.7549V19.751C168.933 19.8682 168.713 19.9544 168.479 20.0098C168.244 20.0684 167.956 20.0977 167.614 20.0977ZM172.526 14.4922C173.21 14.4922 173.726 14.6436 174.074 14.9463C174.426 15.249 174.602 15.721 174.602 16.3623V20H173.786L173.566 19.2334H173.527C173.374 19.4287 173.216 19.5898 173.054 19.7168C172.891 19.8438 172.702 19.9382 172.487 20C172.276 20.0651 172.017 20.0977 171.711 20.0977C171.389 20.0977 171.101 20.0391 170.847 19.9219C170.593 19.8014 170.393 19.6191 170.246 19.375C170.1 19.1309 170.026 18.8216 170.026 18.4473C170.026 17.8906 170.233 17.4723 170.646 17.1924C171.063 16.9124 171.691 16.7578 172.531 16.7285L173.469 16.6943V16.4111C173.469 16.0368 173.381 15.7699 173.205 15.6104C173.033 15.4508 172.788 15.3711 172.473 15.3711C172.202 15.3711 171.94 15.4102 171.687 15.4883C171.433 15.5664 171.185 15.6624 170.944 15.7764L170.573 14.9658C170.837 14.8258 171.136 14.7119 171.472 14.624C171.81 14.5361 172.162 14.4922 172.526 14.4922ZM173.464 17.417L172.766 17.4414C172.193 17.4609 171.791 17.5586 171.56 17.7344C171.328 17.9102 171.213 18.151 171.213 18.457C171.213 18.724 171.293 18.9193 171.452 19.043C171.612 19.1634 171.822 19.2236 172.082 19.2236C172.479 19.2236 172.808 19.1113 173.068 18.8867C173.332 18.6589 173.464 18.3252 173.464 17.8857V17.417ZM178.22 19.1699C178.369 19.1699 178.518 19.1569 178.664 19.1309C178.811 19.1016 178.944 19.0674 179.064 19.0283V19.8975C178.938 19.9528 178.773 20 178.571 20.0391C178.369 20.0781 178.16 20.0977 177.941 20.0977C177.635 20.0977 177.36 20.0472 177.116 19.9463C176.872 19.8421 176.678 19.6647 176.535 19.4141C176.392 19.1634 176.32 18.8167 176.32 18.374V15.4688H175.583V14.9561L176.374 14.5508L176.75 13.3936H177.473V14.5947H179.021V15.4688H177.473V18.3594C177.473 18.6328 177.541 18.8363 177.678 18.9697C177.814 19.1032 177.995 19.1699 178.22 19.1699ZM181.311 14.5947V20H180.163V14.5947H181.311ZM180.744 12.5244C180.92 12.5244 181.071 12.5716 181.198 12.666C181.328 12.7604 181.394 12.9232 181.394 13.1543C181.394 13.3822 181.328 13.5449 181.198 13.6426C181.071 13.737 180.92 13.7842 180.744 13.7842C180.562 13.7842 180.407 13.737 180.28 13.6426C180.157 13.5449 180.095 13.3822 180.095 13.1543C180.095 12.9232 180.157 12.7604 180.28 12.666C180.407 12.5716 180.562 12.5244 180.744 12.5244ZM187.741 17.2852C187.741 17.7344 187.683 18.1331 187.565 18.4814C187.448 18.8298 187.277 19.1243 187.053 19.3652C186.828 19.6029 186.558 19.7852 186.242 19.9121C185.926 20.0358 185.57 20.0977 185.173 20.0977C184.802 20.0977 184.462 20.0358 184.152 19.9121C183.843 19.7852 183.575 19.6029 183.347 19.3652C183.122 19.1243 182.948 18.8298 182.824 18.4814C182.701 18.1331 182.639 17.7344 182.639 17.2852C182.639 16.6895 182.741 16.1849 182.946 15.7715C183.155 15.3548 183.451 15.0374 183.835 14.8193C184.219 14.6012 184.676 14.4922 185.207 14.4922C185.705 14.4922 186.145 14.6012 186.525 14.8193C186.906 15.0374 187.204 15.3548 187.419 15.7715C187.634 16.1882 187.741 16.6927 187.741 17.2852ZM183.82 17.2852C183.82 17.679 183.868 18.016 183.962 18.2959C184.06 18.5758 184.209 18.7907 184.411 18.9404C184.613 19.0869 184.873 19.1602 185.192 19.1602C185.511 19.1602 185.772 19.0869 185.974 18.9404C186.175 18.7907 186.324 18.5758 186.418 18.2959C186.512 18.016 186.56 17.679 186.56 17.2852C186.56 16.8913 186.512 16.5576 186.418 16.2842C186.324 16.0075 186.175 15.7975 185.974 15.6543C185.772 15.5078 185.51 15.4346 185.188 15.4346C184.712 15.4346 184.366 15.5941 184.147 15.9131C183.929 16.2321 183.82 16.6895 183.82 17.2852ZM191.877 14.4922C192.486 14.4922 192.959 14.6501 193.298 14.9658C193.64 15.2783 193.811 15.7812 193.811 16.4746V20H192.663V16.6895C192.663 16.2695 192.577 15.9554 192.404 15.7471C192.232 15.5355 191.965 15.4297 191.604 15.4297C191.079 15.4297 190.715 15.5908 190.51 15.9131C190.308 16.2354 190.207 16.7025 190.207 17.3145V20H189.06V14.5947H189.953L190.114 15.3271H190.178C190.295 15.1383 190.44 14.9837 190.612 14.8633C190.788 14.7396 190.983 14.6468 191.198 14.585C191.416 14.5231 191.643 14.4922 191.877 14.4922Z" fill="#704ED9"/>
<path d="M83.3105 29.2949C85.3372 29.2949 86.8161 29.7318 87.7471 30.6055C88.6781 31.472 89.1436 32.668 89.1436 34.1934C89.1436 34.8809 89.0397 35.5397 88.832 36.1699C88.6243 36.793 88.2842 37.348 87.8115 37.835C87.346 38.3219 86.723 38.7087 85.9424 38.9951C85.1618 39.2744 84.1986 39.4141 83.0527 39.4141H81.624V45H78.2939V29.2949H83.3105ZM83.1387 32.0234H81.624V36.6855H82.7197C83.3428 36.6855 83.8835 36.6032 84.3418 36.4385C84.8001 36.2738 85.1546 36.016 85.4053 35.665C85.6559 35.3141 85.7812 34.863 85.7812 34.3115C85.7812 33.5381 85.5664 32.9652 85.1367 32.5928C84.707 32.2132 84.041 32.0234 83.1387 32.0234ZM95.127 45H91.8506V28.2852H95.127V45ZM103.495 32.7432C105.106 32.7432 106.342 33.0941 107.201 33.7959C108.061 34.4977 108.49 35.5648 108.49 36.9971V45H106.202L105.568 43.3672H105.482C105.139 43.7969 104.788 44.1478 104.43 44.4199C104.072 44.6921 103.66 44.8926 103.194 45.0215C102.729 45.1504 102.163 45.2148 101.497 45.2148C100.788 45.2148 100.151 45.0788 99.585 44.8066C99.0264 44.5345 98.5859 44.1191 98.2637 43.5605C97.9414 42.9948 97.7803 42.2786 97.7803 41.4121C97.7803 40.1374 98.2279 39.1992 99.123 38.5977C100.018 37.9889 101.361 37.6523 103.151 37.5879L105.235 37.5234V36.9971C105.235 36.3669 105.071 35.9049 104.741 35.6113C104.412 35.3177 103.953 35.1709 103.366 35.1709C102.786 35.1709 102.217 35.2533 101.658 35.418C101.1 35.5827 100.541 35.7904 99.9824 36.041L98.8975 33.8281C99.5348 33.4915 100.247 33.2266 101.035 33.0332C101.83 32.8398 102.65 32.7432 103.495 32.7432ZM105.235 39.4355L103.968 39.4785C102.908 39.5072 102.17 39.6969 101.755 40.0479C101.347 40.3988 101.143 40.8607 101.143 41.4336C101.143 41.9349 101.289 42.293 101.583 42.5078C101.877 42.7155 102.26 42.8193 102.732 42.8193C103.434 42.8193 104.025 42.6117 104.505 42.1963C104.992 41.7809 105.235 41.1901 105.235 40.4238V39.4355ZM110.155 32.9902H113.743L116.01 39.7471C116.081 39.9619 116.142 40.1803 116.192 40.4023C116.243 40.6243 116.285 40.8535 116.321 41.0898C116.357 41.3262 116.386 41.5732 116.407 41.8311H116.472C116.515 41.4443 116.572 41.0827 116.644 40.7461C116.722 40.4095 116.819 40.0765 116.934 39.7471L119.157 32.9902H122.67L117.589 46.5361C117.281 47.3669 116.88 48.0579 116.386 48.6094C115.892 49.168 115.322 49.5869 114.678 49.8662C114.04 50.1455 113.339 50.2852 112.572 50.2852C112.2 50.2852 111.878 50.2637 111.605 50.2207C111.333 50.1849 111.101 50.1455 110.907 50.1025V47.5029C111.058 47.5387 111.247 47.571 111.477 47.5996C111.706 47.6283 111.946 47.6426 112.196 47.6426C112.655 47.6426 113.049 47.5459 113.378 47.3525C113.707 47.1592 113.983 46.8978 114.205 46.5684C114.427 46.2461 114.603 45.8916 114.731 45.5049L114.925 44.9141L110.155 32.9902ZM139.643 40.6387C139.643 41.5697 139.417 42.3789 138.966 43.0664C138.515 43.7539 137.856 44.2839 136.989 44.6562C136.13 45.0286 135.084 45.2148 133.853 45.2148C133.308 45.2148 132.775 45.179 132.252 45.1074C131.736 45.0358 131.239 44.932 130.759 44.7959C130.286 44.6527 129.835 44.4772 129.405 44.2695V41.1758C130.15 41.5052 130.924 41.8024 131.726 42.0674C132.528 42.3324 133.323 42.4648 134.11 42.4648C134.655 42.4648 135.091 42.3932 135.421 42.25C135.757 42.1068 136.001 41.9098 136.151 41.6592C136.302 41.4085 136.377 41.1221 136.377 40.7998C136.377 40.4059 136.244 40.0693 135.979 39.79C135.715 39.5107 135.349 39.2493 134.884 39.0059C134.425 38.7624 133.906 38.501 133.326 38.2217C132.961 38.0498 132.563 37.8421 132.134 37.5986C131.704 37.348 131.296 37.0436 130.909 36.6855C130.522 36.3275 130.204 35.8942 129.953 35.3857C129.71 34.8701 129.588 34.2542 129.588 33.5381C129.588 32.5999 129.803 31.7979 130.232 31.1318C130.662 30.4658 131.274 29.9574 132.069 29.6064C132.871 29.2484 133.817 29.0693 134.905 29.0693C135.722 29.0693 136.499 29.166 137.236 29.3594C137.981 29.5456 138.758 29.8177 139.567 30.1758L138.493 32.7646C137.77 32.471 137.122 32.2454 136.549 32.0879C135.976 31.9232 135.392 31.8408 134.798 31.8408C134.382 31.8408 134.028 31.9089 133.734 32.0449C133.441 32.1738 133.219 32.36 133.068 32.6035C132.918 32.8398 132.843 33.1156 132.843 33.4307C132.843 33.8031 132.95 34.1182 133.165 34.376C133.387 34.6266 133.716 34.8701 134.153 35.1064C134.597 35.3428 135.149 35.6185 135.808 35.9336C136.61 36.3132 137.294 36.7106 137.859 37.126C138.432 37.5342 138.873 38.0176 139.181 38.5762C139.489 39.1276 139.643 39.8151 139.643 40.6387ZM147.291 42.6045C147.649 42.6045 147.996 42.5687 148.333 42.4971C148.677 42.4255 149.017 42.3359 149.354 42.2285V44.667C149.003 44.8245 148.566 44.9535 148.043 45.0537C147.527 45.1611 146.962 45.2148 146.346 45.2148C145.63 45.2148 144.985 45.1003 144.412 44.8711C143.846 44.6348 143.399 44.2301 143.069 43.6572C142.747 43.0771 142.586 42.2715 142.586 41.2402V35.4502H141.018V34.0645L142.822 32.9688L143.768 30.4336H145.862V32.9902H149.225V35.4502H145.862V41.2402C145.862 41.6986 145.991 42.0423 146.249 42.2715C146.514 42.4935 146.861 42.6045 147.291 42.6045ZM162.706 38.9736C162.706 39.9762 162.57 40.8643 162.298 41.6377C162.033 42.4111 161.643 43.0664 161.127 43.6035C160.618 44.1335 160.003 44.5345 159.279 44.8066C158.563 45.0788 157.754 45.2148 156.852 45.2148C156.007 45.2148 155.229 45.0788 154.521 44.8066C153.819 44.5345 153.206 44.1335 152.684 43.6035C152.168 43.0664 151.767 42.4111 151.48 41.6377C151.201 40.8643 151.062 39.9762 151.062 38.9736C151.062 37.6416 151.298 36.5137 151.771 35.5898C152.243 34.666 152.916 33.9642 153.79 33.4844C154.664 33.0046 155.706 32.7646 156.916 32.7646C158.04 32.7646 159.036 33.0046 159.902 33.4844C160.776 33.9642 161.46 34.666 161.954 35.5898C162.455 36.5137 162.706 37.6416 162.706 38.9736ZM154.402 38.9736C154.402 39.7614 154.488 40.4238 154.66 40.9609C154.832 41.498 155.101 41.9027 155.466 42.1748C155.831 42.4469 156.307 42.583 156.895 42.583C157.475 42.583 157.944 42.4469 158.302 42.1748C158.667 41.9027 158.932 41.498 159.097 40.9609C159.269 40.4238 159.354 39.7614 159.354 38.9736C159.354 38.1787 159.269 37.5199 159.097 36.9971C158.932 36.4671 158.667 36.0697 158.302 35.8047C157.937 35.5397 157.46 35.4072 156.873 35.4072C156.007 35.4072 155.376 35.7044 154.982 36.2988C154.596 36.8932 154.402 37.7848 154.402 38.9736ZM172.116 32.7646C172.281 32.7646 172.471 32.7754 172.686 32.7969C172.908 32.8112 173.087 32.8327 173.223 32.8613L172.976 35.9336C172.868 35.8978 172.714 35.8727 172.514 35.8584C172.32 35.8369 172.152 35.8262 172.009 35.8262C171.586 35.8262 171.174 35.8799 170.773 35.9873C170.38 36.0947 170.025 36.2702 169.71 36.5137C169.395 36.75 169.144 37.0651 168.958 37.459C168.779 37.8457 168.689 38.3219 168.689 38.8877V45H165.413V32.9902H167.895L168.378 35.0098H168.539C168.775 34.6016 169.069 34.2292 169.42 33.8926C169.778 33.5488 170.183 33.2767 170.634 33.0762C171.092 32.8685 171.586 32.7646 172.116 32.7646ZM180.355 32.7646C181.465 32.7646 182.422 32.9795 183.224 33.4092C184.026 33.8317 184.645 34.4476 185.082 35.2568C185.519 36.0661 185.737 37.0544 185.737 38.2217V39.8115H177.992C178.028 40.7354 178.304 41.4622 178.819 41.9922C179.342 42.515 180.065 42.7764 180.989 42.7764C181.756 42.7764 182.457 42.6976 183.095 42.54C183.732 42.3825 184.387 42.1462 185.061 41.8311V44.3662C184.466 44.6598 183.843 44.8747 183.191 45.0107C182.547 45.1468 181.763 45.2148 180.839 45.2148C179.636 45.2148 178.569 44.9928 177.638 44.5488C176.714 44.1048 175.987 43.4281 175.457 42.5186C174.934 41.609 174.673 40.4632 174.673 39.0811C174.673 37.6774 174.909 36.5101 175.382 35.5791C175.862 34.641 176.528 33.9391 177.38 33.4736C178.232 33.001 179.224 32.7646 180.355 32.7646ZM180.377 35.0957C179.74 35.0957 179.21 35.2998 178.787 35.708C178.372 36.1162 178.132 36.7572 178.067 37.6309H182.665C182.658 37.1439 182.568 36.7106 182.396 36.3311C182.232 35.9515 181.981 35.6507 181.645 35.4287C181.315 35.2067 180.893 35.0957 180.377 35.0957Z" fill="#704ED9"/>
<rect x="0.5" y="0.5" width="241" height="63" rx="19.5" stroke="#704ED9"/>
<path d="M46.8632 37.0534C50.7851 34.8615 53.7841 33.1914 54.0405 33.0609C54.8607 32.6173 55.7066 31.443 54.0405 30.5297C53.5022 30.2426 50.6056 28.6247 46.8632 26.5371L41.7109 31.8083L46.8632 37.0534Z" fill="#FFD400"/>
<path d="M41.7104 31.8086L25.2539 48.6921C25.6384 48.7443 26.0742 48.6399 26.5868 48.3529C27.6634 47.7527 39.0958 41.3855 46.8626 37.0537L41.7104 31.8086Z" fill="#FF3333"/>
<path d="M41.7126 31.8081L46.8648 26.5369C46.8648 26.5369 27.7425 15.9162 26.589 15.2899C26.1533 15.029 25.6662 14.9507 25.2305 15.029L41.7126 31.8081Z" fill="#48FF48"/>
<path d="M41.7125 31.8085L25.2304 15.0293C24.5639 15.1859 24 15.7861 24 17.0125C24 18.9697 24 45.0648 24 46.7088C24 47.8308 24.4358 48.6398 25.256 48.7181L41.7125 31.8085Z" fill="#3BCCFF"/>
</svg>
