<svg width="1224" height="578" viewBox="0 0 1224 578" fill="none" xmlns="http://www.w3.org/2000/svg">
<rect width="1224" height="578" rx="42" fill="#192C4D"/>
<path d="M52.8915 25C51.9431 25 51.176 25.7607 51.176 26.7013V43.7435L43.3359 27.4718C42.7918 26.3538 41.6767 25.6416 40.4243 25.6125C39.1793 25.5833 38.025 26.2444 37.4295 27.3357L25.2074 49.7127C24.7564 50.539 25.0652 51.572 25.8985 52.0192C26.7318 52.4688 27.7733 52.1601 28.2243 51.3338L37.1403 35.011L32.6235 51.2998C32.5156 51.6886 32.746 52.0897 33.1381 52.1966C33.2043 52.2136 33.268 52.2233 33.3342 52.2233C33.6577 52.2233 33.9518 52.0119 34.0425 51.6862L39.694 31.2997V51.4918C39.694 51.8952 40.0224 52.2209 40.4292 52.2209C40.8361 52.2209 41.1645 51.8952 41.1645 51.4918V31.8684L46.1126 51.6668C46.2107 52.0581 46.6101 52.2938 47.0023 52.199C47.3968 52.1018 47.637 51.7057 47.539 51.3168L43.7868 36.304L50.9309 51.1369C51.2593 51.815 51.9357 52.2258 52.666 52.2258C52.8082 52.2258 52.9552 52.2112 53.0998 52.1772C53.9846 51.9779 54.6046 51.2098 54.6046 50.3106V26.7013C54.6046 25.7607 53.8375 25 52.8891 25H52.8915Z" fill="white"/>
</svg>
