<svg width="242" height="64" viewBox="0 0 242 64" fill="none" xmlns="http://www.w3.org/2000/svg">
<rect x="0.5" y="0.5" width="241" height="63" rx="19.5" fill="#704ED9" stroke="#704ED9"/>
<path d="M70.8164 22H69.6396V15.8574H67.5498V14.8613H72.9014V15.8574H70.8164V22ZM76.0312 16.4922C76.513 16.4922 76.9264 16.5915 77.2715 16.79C77.6165 16.9886 77.8818 17.2702 78.0674 17.6348C78.2529 17.9993 78.3457 18.4355 78.3457 18.9434V19.5586H74.7373C74.7503 20.0827 74.8903 20.4863 75.1572 20.7695C75.4274 21.0527 75.805 21.1943 76.29 21.1943C76.6351 21.1943 76.9443 21.1618 77.2178 21.0967C77.4945 21.0283 77.7793 20.929 78.0723 20.7988V21.7314C77.8021 21.8584 77.527 21.9512 77.2471 22.0098C76.9671 22.0684 76.6318 22.0977 76.2412 22.0977C75.7106 22.0977 75.2435 21.9951 74.8398 21.79C74.4395 21.5817 74.1253 21.2725 73.8975 20.8623C73.6729 20.4521 73.5605 19.9427 73.5605 19.334C73.5605 18.7285 73.6631 18.2142 73.8682 17.791C74.0732 17.3678 74.3613 17.0456 74.7324 16.8242C75.1035 16.6029 75.5365 16.4922 76.0312 16.4922ZM76.0312 17.3564C75.6699 17.3564 75.377 17.4736 75.1523 17.708C74.931 17.9424 74.8008 18.2858 74.7617 18.7383H77.2227C77.2194 18.4681 77.1738 18.2288 77.0859 18.0205C77.0013 17.8122 76.8711 17.6494 76.6953 17.5322C76.5228 17.415 76.3014 17.3564 76.0312 17.3564ZM77.6279 14.3389V14.4365C77.5498 14.5309 77.444 14.6449 77.3105 14.7783C77.1771 14.9085 77.0322 15.0469 76.876 15.1934C76.7197 15.3366 76.5651 15.4749 76.4121 15.6084C76.2591 15.7386 76.1208 15.8493 75.9971 15.9404H75.2305V15.8135C75.3379 15.6898 75.4567 15.5417 75.5869 15.3691C75.7204 15.1966 75.8506 15.0192 75.9775 14.8369C76.1077 14.6546 76.2168 14.4886 76.3047 14.3389H77.6279ZM80.792 22H79.6396V14.4023H80.792V22ZM84.5859 16.4922C85.0677 16.4922 85.4811 16.5915 85.8262 16.79C86.1712 16.9886 86.4365 17.2702 86.6221 17.6348C86.8076 17.9993 86.9004 18.4355 86.9004 18.9434V19.5586H83.292C83.305 20.0827 83.445 20.4863 83.7119 20.7695C83.9821 21.0527 84.3597 21.1943 84.8447 21.1943C85.1898 21.1943 85.499 21.1618 85.7725 21.0967C86.0492 21.0283 86.334 20.929 86.627 20.7988V21.7314C86.3568 21.8584 86.0817 21.9512 85.8018 22.0098C85.5218 22.0684 85.1865 22.0977 84.7959 22.0977C84.2653 22.0977 83.7982 21.9951 83.3945 21.79C82.9941 21.5817 82.68 21.2725 82.4521 20.8623C82.2275 20.4521 82.1152 19.9427 82.1152 19.334C82.1152 18.7285 82.2178 18.2142 82.4229 17.791C82.6279 17.3678 82.916 17.0456 83.2871 16.8242C83.6582 16.6029 84.0911 16.4922 84.5859 16.4922ZM84.5859 17.3564C84.2246 17.3564 83.9316 17.4736 83.707 17.708C83.4857 17.9424 83.3555 18.2858 83.3164 18.7383H85.7773C85.7741 18.4681 85.7285 18.2288 85.6406 18.0205C85.556 17.8122 85.4258 17.6494 85.25 17.5322C85.0775 17.415 84.8561 17.3564 84.5859 17.3564ZM86.1826 14.3389V14.4365C86.1045 14.5309 85.9987 14.6449 85.8652 14.7783C85.7318 14.9085 85.5869 15.0469 85.4307 15.1934C85.2744 15.3366 85.1198 15.4749 84.9668 15.6084C84.8138 15.7386 84.6755 15.8493 84.5518 15.9404H83.7852V15.8135C83.8926 15.6898 84.0114 15.5417 84.1416 15.3691C84.2751 15.1966 84.4053 15.0192 84.5322 14.8369C84.6624 14.6546 84.7715 14.4886 84.8594 14.3389H86.1826ZM90.3721 22.0977C89.861 22.0977 89.4183 21.9984 89.0439 21.7998C88.6696 21.6012 88.3815 21.2969 88.1797 20.8867C87.9779 20.4766 87.877 19.9557 87.877 19.3242C87.877 18.6667 87.9876 18.1296 88.209 17.7129C88.4303 17.2962 88.7363 16.9886 89.127 16.79C89.5208 16.5915 89.9717 16.4922 90.4795 16.4922C90.8018 16.4922 91.0931 16.5247 91.3535 16.5898C91.6172 16.6517 91.8402 16.7282 92.0225 16.8193L91.6807 17.7373C91.4821 17.6559 91.2786 17.5876 91.0703 17.5322C90.862 17.4769 90.6618 17.4492 90.4697 17.4492C90.154 17.4492 89.8903 17.5192 89.6787 17.6592C89.4704 17.7992 89.3141 18.0075 89.21 18.2842C89.109 18.5609 89.0586 18.9043 89.0586 19.3145C89.0586 19.7116 89.1107 20.0469 89.2148 20.3203C89.319 20.5905 89.4736 20.7956 89.6787 20.9355C89.8838 21.0723 90.1361 21.1406 90.4355 21.1406C90.7318 21.1406 90.9971 21.1048 91.2314 21.0332C91.4658 20.9616 91.6872 20.8688 91.8955 20.7549V21.751C91.6904 21.8682 91.4707 21.9544 91.2363 22.0098C91.002 22.0684 90.7139 22.0977 90.3721 22.0977ZM94.3125 14.4023V16.3115C94.3125 16.5101 94.306 16.7038 94.293 16.8926C94.2832 17.0814 94.2718 17.2279 94.2588 17.332H94.3223C94.4362 17.1432 94.5762 16.9886 94.7422 16.8682C94.9082 16.7445 95.0938 16.6517 95.2988 16.5898C95.5072 16.528 95.7285 16.4971 95.9629 16.4971C96.3763 16.4971 96.7279 16.5671 97.0176 16.707C97.3073 16.8438 97.5286 17.057 97.6816 17.3467C97.8379 17.6364 97.916 18.0124 97.916 18.4746V22H96.7686V18.6895C96.7686 18.2695 96.6823 17.9554 96.5098 17.7471C96.3372 17.5355 96.0703 17.4297 95.709 17.4297C95.3607 17.4297 95.084 17.5029 94.8789 17.6494C94.6771 17.7926 94.5322 18.0059 94.4443 18.2891C94.3564 18.569 94.3125 18.9108 94.3125 19.3145V22H93.165V14.4023H94.3125ZM101.642 16.4922C102.325 16.4922 102.841 16.6436 103.189 16.9463C103.541 17.249 103.717 17.721 103.717 18.3623V22H102.901L102.682 21.2334H102.643C102.49 21.4287 102.332 21.5898 102.169 21.7168C102.006 21.8438 101.817 21.9382 101.603 22C101.391 22.0651 101.132 22.0977 100.826 22.0977C100.504 22.0977 100.216 22.0391 99.9619 21.9219C99.708 21.8014 99.5078 21.6191 99.3613 21.375C99.2148 21.1309 99.1416 20.8216 99.1416 20.4473C99.1416 19.8906 99.3483 19.4723 99.7617 19.1924C100.178 18.9124 100.807 18.7578 101.646 18.7285L102.584 18.6943V18.4111C102.584 18.0368 102.496 17.7699 102.32 17.6104C102.148 17.4508 101.904 17.3711 101.588 17.3711C101.318 17.3711 101.056 17.4102 100.802 17.4883C100.548 17.5664 100.3 17.6624 100.06 17.7764L99.6885 16.9658C99.9521 16.8258 100.252 16.7119 100.587 16.624C100.925 16.5361 101.277 16.4922 101.642 16.4922ZM102.579 19.417L101.881 19.4414C101.308 19.4609 100.906 19.5586 100.675 19.7344C100.444 19.9102 100.328 20.151 100.328 20.457C100.328 20.724 100.408 20.9193 100.567 21.043C100.727 21.1634 100.937 21.2236 101.197 21.2236C101.594 21.2236 101.923 21.1113 102.184 20.8867C102.447 20.6589 102.579 20.3252 102.579 19.8857V19.417ZM108.062 16.4922C108.154 16.4922 108.253 16.4971 108.36 16.5068C108.468 16.5166 108.561 16.5296 108.639 16.5459L108.531 17.6201C108.463 17.6006 108.378 17.5859 108.277 17.5762C108.18 17.5664 108.092 17.5615 108.014 17.5615C107.809 17.5615 107.613 17.5957 107.428 17.6641C107.242 17.7292 107.078 17.8301 106.935 17.9668C106.791 18.1003 106.679 18.2679 106.598 18.4697C106.516 18.6715 106.476 18.9059 106.476 19.1729V22H105.323V16.5947H106.222L106.378 17.5469H106.432C106.539 17.3548 106.673 17.179 106.832 17.0195C106.992 16.86 107.174 16.7331 107.379 16.6387C107.587 16.541 107.815 16.4922 108.062 16.4922ZM111.183 24.4023C110.45 24.4023 109.889 24.2705 109.498 24.0068C109.107 23.7432 108.912 23.3737 108.912 22.8984C108.912 22.5664 109.016 22.2848 109.225 22.0537C109.433 21.8258 109.731 21.668 110.118 21.5801C109.972 21.515 109.845 21.4141 109.737 21.2773C109.633 21.1374 109.581 20.9827 109.581 20.8135C109.581 20.6117 109.638 20.4391 109.752 20.2959C109.866 20.1527 110.037 20.0143 110.265 19.8809C109.981 19.7604 109.754 19.5651 109.581 19.2949C109.412 19.0215 109.327 18.7008 109.327 18.333C109.327 17.9424 109.41 17.6104 109.576 17.3369C109.742 17.0602 109.985 16.8503 110.304 16.707C110.623 16.5605 111.008 16.4873 111.461 16.4873C111.559 16.4873 111.664 16.4938 111.778 16.5068C111.896 16.5166 112.003 16.5296 112.101 16.5459C112.201 16.5589 112.278 16.5736 112.33 16.5898H114.2V17.2295L113.282 17.4004C113.37 17.5241 113.44 17.6657 113.492 17.8252C113.544 17.9814 113.57 18.1523 113.57 18.3379C113.57 18.8978 113.377 19.3389 112.989 19.6611C112.605 19.9801 112.075 20.1396 111.397 20.1396C111.235 20.1331 111.077 20.1201 110.924 20.1006C110.807 20.1722 110.717 20.252 110.655 20.3398C110.593 20.4245 110.562 20.5205 110.562 20.6279C110.562 20.7158 110.593 20.7874 110.655 20.8428C110.717 20.8949 110.808 20.9339 110.929 20.96C111.052 20.986 111.202 20.999 111.378 20.999H112.311C112.903 20.999 113.355 21.1243 113.668 21.375C113.98 21.6257 114.137 21.9935 114.137 22.4785C114.137 23.0938 113.883 23.5674 113.375 23.8994C112.867 24.2347 112.136 24.4023 111.183 24.4023ZM111.227 23.5967C111.627 23.5967 111.964 23.5576 112.237 23.4795C112.511 23.4014 112.717 23.2891 112.857 23.1426C112.997 22.9993 113.067 22.8285 113.067 22.6299C113.067 22.4541 113.023 22.319 112.936 22.2246C112.848 22.1302 112.716 22.0651 112.54 22.0293C112.364 21.9935 112.146 21.9756 111.886 21.9756H111.036C110.825 21.9756 110.637 22.0081 110.475 22.0732C110.312 22.1416 110.185 22.2393 110.094 22.3662C110.006 22.4932 109.962 22.6462 109.962 22.8252C109.962 23.0726 110.071 23.263 110.289 23.3965C110.51 23.5299 110.823 23.5967 111.227 23.5967ZM111.451 19.3877C111.786 19.3877 112.035 19.2965 112.198 19.1143C112.361 18.9287 112.442 18.6683 112.442 18.333C112.442 17.9684 112.358 17.695 112.188 17.5127C112.022 17.3304 111.775 17.2393 111.446 17.2393C111.124 17.2393 110.878 17.332 110.709 17.5176C110.543 17.7031 110.46 17.9782 110.46 18.3428C110.46 18.6715 110.543 18.9287 110.709 19.1143C110.878 19.2965 111.126 19.3877 111.451 19.3877ZM117.34 16.4922C117.822 16.4922 118.235 16.5915 118.58 16.79C118.925 16.9886 119.19 17.2702 119.376 17.6348C119.562 17.9993 119.654 18.4355 119.654 18.9434V19.5586H116.046C116.059 20.0827 116.199 20.4863 116.466 20.7695C116.736 21.0527 117.114 21.1943 117.599 21.1943C117.944 21.1943 118.253 21.1618 118.526 21.0967C118.803 21.0283 119.088 20.929 119.381 20.7988V21.7314C119.111 21.8584 118.836 21.9512 118.556 22.0098C118.276 22.0684 117.94 22.0977 117.55 22.0977C117.019 22.0977 116.552 21.9951 116.148 21.79C115.748 21.5817 115.434 21.2725 115.206 20.8623C114.981 20.4521 114.869 19.9427 114.869 19.334C114.869 18.7285 114.972 18.2142 115.177 17.791C115.382 17.3678 115.67 17.0456 116.041 16.8242C116.412 16.6029 116.845 16.4922 117.34 16.4922ZM117.34 17.3564C116.979 17.3564 116.686 17.4736 116.461 17.708C116.24 17.9424 116.109 18.2858 116.07 18.7383H118.531C118.528 18.4681 118.482 18.2288 118.395 18.0205C118.31 17.8122 118.18 17.6494 118.004 17.5322C117.831 17.415 117.61 17.3564 117.34 17.3564ZM123.688 16.4922C123.779 16.4922 123.878 16.4971 123.985 16.5068C124.093 16.5166 124.186 16.5296 124.264 16.5459L124.156 17.6201C124.088 17.6006 124.003 17.5859 123.902 17.5762C123.805 17.5664 123.717 17.5615 123.639 17.5615C123.434 17.5615 123.238 17.5957 123.053 17.6641C122.867 17.7292 122.703 17.8301 122.56 17.9668C122.416 18.1003 122.304 18.2679 122.223 18.4697C122.141 18.6715 122.101 18.9059 122.101 19.1729V22H120.948V16.5947H121.847L122.003 17.5469H122.057C122.164 17.3548 122.298 17.179 122.457 17.0195C122.617 16.86 122.799 16.7331 123.004 16.6387C123.212 16.541 123.44 16.4922 123.688 16.4922ZM129.015 22H127.862V14.4023H129.015V22ZM131.573 14.8613L131.646 14.9688C131.588 15.2064 131.511 15.4603 131.417 15.7305C131.326 16.0007 131.227 16.2708 131.119 16.541C131.012 16.8112 130.903 17.0667 130.792 17.3076H129.962C130.007 17.1156 130.055 16.9137 130.104 16.7021C130.152 16.4873 130.2 16.2725 130.245 16.0576C130.291 15.8395 130.331 15.6296 130.367 15.4277C130.403 15.2227 130.434 15.0339 130.46 14.8613H131.573ZM134.708 16.4922C135.392 16.4922 135.908 16.6436 136.256 16.9463C136.607 17.249 136.783 17.721 136.783 18.3623V22H135.968L135.748 21.2334H135.709C135.556 21.4287 135.398 21.5898 135.235 21.7168C135.073 21.8438 134.884 21.9382 134.669 22C134.457 22.0651 134.199 22.0977 133.893 22.0977C133.57 22.0977 133.282 22.0391 133.028 21.9219C132.774 21.8014 132.574 21.6191 132.428 21.375C132.281 21.1309 132.208 20.8216 132.208 20.4473C132.208 19.8906 132.415 19.4723 132.828 19.1924C133.245 18.9124 133.873 18.7578 134.713 18.7285L135.65 18.6943V18.4111C135.65 18.0368 135.562 17.7699 135.387 17.6104C135.214 17.4508 134.97 17.3711 134.654 17.3711C134.384 17.3711 134.122 17.4102 133.868 17.4883C133.614 17.5664 133.367 17.6624 133.126 17.7764L132.755 16.9658C133.019 16.8258 133.318 16.7119 133.653 16.624C133.992 16.5361 134.343 16.4922 134.708 16.4922ZM135.646 19.417L134.947 19.4414C134.374 19.4609 133.972 19.5586 133.741 19.7344C133.51 19.9102 133.395 20.151 133.395 20.457C133.395 20.724 133.474 20.9193 133.634 21.043C133.793 21.1634 134.003 21.2236 134.264 21.2236C134.661 21.2236 134.99 21.1113 135.25 20.8867C135.514 20.6589 135.646 20.3252 135.646 19.8857V19.417ZM141.163 16.4922C141.804 16.4922 142.319 16.7266 142.706 17.1953C143.097 17.6641 143.292 18.3607 143.292 19.2852C143.292 19.8971 143.201 20.4131 143.019 20.833C142.84 21.2497 142.587 21.5654 142.262 21.7803C141.939 21.9919 141.563 22.0977 141.134 22.0977C140.86 22.0977 140.623 22.0618 140.421 21.9902C140.219 21.9186 140.047 21.8258 139.903 21.7119C139.76 21.5947 139.64 21.4678 139.542 21.3311H139.474C139.49 21.4613 139.505 21.6061 139.518 21.7656C139.534 21.9219 139.542 22.0651 139.542 22.1953V24.3975H138.39V16.5947H139.327L139.488 17.3418H139.542C139.643 17.1888 139.765 17.0472 139.908 16.917C140.055 16.7868 140.23 16.6842 140.436 16.6094C140.644 16.5312 140.886 16.4922 141.163 16.4922ZM140.855 17.4297C140.54 17.4297 140.286 17.4932 140.094 17.6201C139.905 17.7438 139.767 17.931 139.679 18.1816C139.594 18.4323 139.549 18.7464 139.542 19.124V19.2852C139.542 19.6855 139.583 20.0257 139.664 20.3057C139.749 20.5824 139.887 20.7939 140.079 20.9404C140.274 21.0837 140.538 21.1553 140.87 21.1553C141.15 21.1553 141.381 21.0788 141.563 20.9258C141.749 20.7728 141.887 20.5547 141.979 20.2715C142.07 19.9883 142.115 19.6546 142.115 19.2705C142.115 18.6878 142.011 18.2354 141.803 17.9131C141.598 17.5908 141.282 17.4297 140.855 17.4297ZM147.394 16.4922C148.035 16.4922 148.549 16.7266 148.937 17.1953C149.327 17.6641 149.522 18.3607 149.522 19.2852C149.522 19.8971 149.431 20.4131 149.249 20.833C149.07 21.2497 148.818 21.5654 148.492 21.7803C148.17 21.9919 147.794 22.0977 147.364 22.0977C147.091 22.0977 146.853 22.0618 146.651 21.9902C146.45 21.9186 146.277 21.8258 146.134 21.7119C145.991 21.5947 145.87 21.4678 145.772 21.3311H145.704C145.72 21.4613 145.735 21.6061 145.748 21.7656C145.764 21.9219 145.772 22.0651 145.772 22.1953V24.3975H144.62V16.5947H145.558L145.719 17.3418H145.772C145.873 17.1888 145.995 17.0472 146.139 16.917C146.285 16.7868 146.461 16.6842 146.666 16.6094C146.874 16.5312 147.117 16.4922 147.394 16.4922ZM147.086 17.4297C146.77 17.4297 146.516 17.4932 146.324 17.6201C146.135 17.7438 145.997 17.931 145.909 18.1816C145.825 18.4323 145.779 18.7464 145.772 19.124V19.2852C145.772 19.6855 145.813 20.0257 145.895 20.3057C145.979 20.5824 146.118 20.7939 146.31 20.9404C146.505 21.0837 146.769 21.1553 147.101 21.1553C147.381 21.1553 147.612 21.0788 147.794 20.9258C147.979 20.7728 148.118 20.5547 148.209 20.2715C148.3 19.9883 148.346 19.6546 148.346 19.2705C148.346 18.6878 148.242 18.2354 148.033 17.9131C147.828 17.5908 147.512 17.4297 147.086 17.4297ZM152.003 22H150.851V14.4023H152.003V22ZM154.791 16.5947V22H153.644V16.5947H154.791ZM154.225 14.5244C154.4 14.5244 154.552 14.5716 154.679 14.666C154.809 14.7604 154.874 14.9232 154.874 15.1543C154.874 15.3822 154.809 15.5449 154.679 15.6426C154.552 15.737 154.4 15.7842 154.225 15.7842C154.042 15.7842 153.888 15.737 153.761 15.6426C153.637 15.5449 153.575 15.3822 153.575 15.1543C153.575 14.9232 153.637 14.7604 153.761 14.666C153.888 14.5716 154.042 14.5244 154.225 14.5244ZM158.614 22.0977C158.103 22.0977 157.66 21.9984 157.286 21.7998C156.912 21.6012 156.624 21.2969 156.422 20.8867C156.22 20.4766 156.119 19.9557 156.119 19.3242C156.119 18.6667 156.23 18.1296 156.451 17.7129C156.673 17.2962 156.979 16.9886 157.369 16.79C157.763 16.5915 158.214 16.4922 158.722 16.4922C159.044 16.4922 159.335 16.5247 159.596 16.5898C159.859 16.6517 160.082 16.7282 160.265 16.8193L159.923 17.7373C159.724 17.6559 159.521 17.5876 159.312 17.5322C159.104 17.4769 158.904 17.4492 158.712 17.4492C158.396 17.4492 158.132 17.5192 157.921 17.6592C157.713 17.7992 157.556 18.0075 157.452 18.2842C157.351 18.5609 157.301 18.9043 157.301 19.3145C157.301 19.7116 157.353 20.0469 157.457 20.3203C157.561 20.5905 157.716 20.7956 157.921 20.9355C158.126 21.0723 158.378 21.1406 158.678 21.1406C158.974 21.1406 159.239 21.1048 159.474 21.0332C159.708 20.9616 159.929 20.8688 160.138 20.7549V21.751C159.933 21.8682 159.713 21.9544 159.479 22.0098C159.244 22.0684 158.956 22.0977 158.614 22.0977ZM163.526 16.4922C164.21 16.4922 164.726 16.6436 165.074 16.9463C165.426 17.249 165.602 17.721 165.602 18.3623V22H164.786L164.566 21.2334H164.527C164.374 21.4287 164.216 21.5898 164.054 21.7168C163.891 21.8438 163.702 21.9382 163.487 22C163.276 22.0651 163.017 22.0977 162.711 22.0977C162.389 22.0977 162.101 22.0391 161.847 21.9219C161.593 21.8014 161.393 21.6191 161.246 21.375C161.1 21.1309 161.026 20.8216 161.026 20.4473C161.026 19.8906 161.233 19.4723 161.646 19.1924C162.063 18.9124 162.691 18.7578 163.531 18.7285L164.469 18.6943V18.4111C164.469 18.0368 164.381 17.7699 164.205 17.6104C164.033 17.4508 163.788 17.3711 163.473 17.3711C163.202 17.3711 162.94 17.4102 162.687 17.4883C162.433 17.5664 162.185 17.6624 161.944 17.7764L161.573 16.9658C161.837 16.8258 162.136 16.7119 162.472 16.624C162.81 16.5361 163.162 16.4922 163.526 16.4922ZM164.464 19.417L163.766 19.4414C163.193 19.4609 162.791 19.5586 162.56 19.7344C162.328 19.9102 162.213 20.151 162.213 20.457C162.213 20.724 162.293 20.9193 162.452 21.043C162.612 21.1634 162.822 21.2236 163.082 21.2236C163.479 21.2236 163.808 21.1113 164.068 20.8867C164.332 20.6589 164.464 20.3252 164.464 19.8857V19.417ZM169.22 21.1699C169.369 21.1699 169.518 21.1569 169.664 21.1309C169.811 21.1016 169.944 21.0674 170.064 21.0283V21.8975C169.938 21.9528 169.773 22 169.571 22.0391C169.369 22.0781 169.16 22.0977 168.941 22.0977C168.635 22.0977 168.36 22.0472 168.116 21.9463C167.872 21.8421 167.678 21.6647 167.535 21.4141C167.392 21.1634 167.32 20.8167 167.32 20.374V17.4688H166.583V16.9561L167.374 16.5508L167.75 15.3936H168.473V16.5947H170.021V17.4688H168.473V20.3594C168.473 20.6328 168.541 20.8363 168.678 20.9697C168.814 21.1032 168.995 21.1699 169.22 21.1699ZM172.311 16.5947V22H171.163V16.5947H172.311ZM171.744 14.5244C171.92 14.5244 172.071 14.5716 172.198 14.666C172.328 14.7604 172.394 14.9232 172.394 15.1543C172.394 15.3822 172.328 15.5449 172.198 15.6426C172.071 15.737 171.92 15.7842 171.744 15.7842C171.562 15.7842 171.407 15.737 171.28 15.6426C171.157 15.5449 171.095 15.3822 171.095 15.1543C171.095 14.9232 171.157 14.7604 171.28 14.666C171.407 14.5716 171.562 14.5244 171.744 14.5244ZM178.741 19.2852C178.741 19.7344 178.683 20.1331 178.565 20.4814C178.448 20.8298 178.277 21.1243 178.053 21.3652C177.828 21.6029 177.558 21.7852 177.242 21.9121C176.926 22.0358 176.57 22.0977 176.173 22.0977C175.802 22.0977 175.462 22.0358 175.152 21.9121C174.843 21.7852 174.575 21.6029 174.347 21.3652C174.122 21.1243 173.948 20.8298 173.824 20.4814C173.701 20.1331 173.639 19.7344 173.639 19.2852C173.639 18.6895 173.741 18.1849 173.946 17.7715C174.155 17.3548 174.451 17.0374 174.835 16.8193C175.219 16.6012 175.676 16.4922 176.207 16.4922C176.705 16.4922 177.145 16.6012 177.525 16.8193C177.906 17.0374 178.204 17.3548 178.419 17.7715C178.634 18.1882 178.741 18.6927 178.741 19.2852ZM174.82 19.2852C174.82 19.679 174.868 20.016 174.962 20.2959C175.06 20.5758 175.209 20.7907 175.411 20.9404C175.613 21.0869 175.873 21.1602 176.192 21.1602C176.511 21.1602 176.772 21.0869 176.974 20.9404C177.175 20.7907 177.324 20.5758 177.418 20.2959C177.512 20.016 177.56 19.679 177.56 19.2852C177.56 18.8913 177.512 18.5576 177.418 18.2842C177.324 18.0075 177.175 17.7975 176.974 17.6543C176.772 17.5078 176.51 17.4346 176.188 17.4346C175.712 17.4346 175.366 17.5941 175.147 17.9131C174.929 18.2321 174.82 18.6895 174.82 19.2852ZM182.877 16.4922C183.486 16.4922 183.959 16.6501 184.298 16.9658C184.64 17.2783 184.811 17.7812 184.811 18.4746V22H183.663V18.6895C183.663 18.2695 183.577 17.9554 183.404 17.7471C183.232 17.5355 182.965 17.4297 182.604 17.4297C182.079 17.4297 181.715 17.5908 181.51 17.9131C181.308 18.2354 181.207 18.7025 181.207 19.3145V22H180.06V16.5947H180.953L181.114 17.3271H181.178C181.295 17.1383 181.44 16.9837 181.612 16.8633C181.788 16.7396 181.983 16.6468 182.198 16.585C182.416 16.5231 182.643 16.4922 182.877 16.4922Z" fill="white"/>
<path d="M79.0732 48L77.9346 44.2617H72.209L71.0703 48H67.4824L73.0254 32.2305H77.0967L82.6611 48H79.0732ZM77.1396 41.4688L76.001 37.8164C75.9294 37.5729 75.8327 37.2614 75.7109 36.8818C75.5964 36.4951 75.4782 36.1048 75.3564 35.7109C75.2419 35.3099 75.1488 34.9626 75.0771 34.6689C75.0055 34.9626 74.9053 35.3278 74.7764 35.7646C74.6546 36.1943 74.5365 36.6025 74.4219 36.9893C74.3073 37.376 74.2249 37.6517 74.1748 37.8164L73.0469 41.4688H77.1396ZM91.0723 35.7646C92.4258 35.7646 93.5179 36.291 94.3486 37.3438C95.1865 38.3965 95.6055 39.9398 95.6055 41.9736C95.6055 43.3343 95.4085 44.4801 95.0146 45.4111C94.6208 46.335 94.0765 47.0332 93.3818 47.5059C92.6872 47.9785 91.8887 48.2148 90.9863 48.2148C90.4062 48.2148 89.9085 48.1432 89.4932 48C89.0778 47.8496 88.7233 47.6598 88.4297 47.4307C88.1361 47.1943 87.8818 46.9437 87.667 46.6787H87.4951C87.5524 46.9652 87.5954 47.2588 87.624 47.5596C87.6527 47.8604 87.667 48.154 87.667 48.4404V53.2852H84.3906V35.9902H87.0547L87.5166 37.5479H87.667C87.8818 37.2256 88.1432 36.9284 88.4512 36.6562C88.7591 36.3841 89.1279 36.1693 89.5576 36.0117C89.9945 35.847 90.4993 35.7646 91.0723 35.7646ZM90.0195 38.3857C89.4466 38.3857 88.9919 38.5039 88.6553 38.7402C88.3187 38.9766 88.0716 39.3311 87.9141 39.8037C87.7637 40.2764 87.6813 40.8743 87.667 41.5977V41.9521C87.667 42.7256 87.7386 43.3809 87.8818 43.918C88.0322 44.4551 88.2793 44.8633 88.623 45.1426C88.974 45.4219 89.4538 45.5615 90.0625 45.5615C90.5638 45.5615 90.9756 45.4219 91.2979 45.1426C91.6201 44.8633 91.86 44.4551 92.0176 43.918C92.1823 43.3737 92.2646 42.7113 92.2646 41.9307C92.2646 40.7562 92.082 39.8717 91.7168 39.2773C91.3516 38.6829 90.7858 38.3857 90.0195 38.3857ZM104.994 35.7646C106.348 35.7646 107.44 36.291 108.271 37.3438C109.108 38.3965 109.527 39.9398 109.527 41.9736C109.527 43.3343 109.33 44.4801 108.937 45.4111C108.543 46.335 107.998 47.0332 107.304 47.5059C106.609 47.9785 105.811 48.2148 104.908 48.2148C104.328 48.2148 103.83 48.1432 103.415 48C103 47.8496 102.645 47.6598 102.352 47.4307C102.058 47.1943 101.804 46.9437 101.589 46.6787H101.417C101.474 46.9652 101.517 47.2588 101.546 47.5596C101.575 47.8604 101.589 48.154 101.589 48.4404V53.2852H98.3125V35.9902H100.977L101.438 37.5479H101.589C101.804 37.2256 102.065 36.9284 102.373 36.6562C102.681 36.3841 103.05 36.1693 103.479 36.0117C103.916 35.847 104.421 35.7646 104.994 35.7646ZM103.941 38.3857C103.368 38.3857 102.914 38.5039 102.577 38.7402C102.241 38.9766 101.993 39.3311 101.836 39.8037C101.686 40.2764 101.603 40.8743 101.589 41.5977V41.9521C101.589 42.7256 101.66 43.3809 101.804 43.918C101.954 44.4551 102.201 44.8633 102.545 45.1426C102.896 45.4219 103.376 45.5615 103.984 45.5615C104.486 45.5615 104.897 45.4219 105.22 45.1426C105.542 44.8633 105.782 44.4551 105.939 43.918C106.104 43.3737 106.187 42.7113 106.187 41.9307C106.187 40.7562 106.004 39.8717 105.639 39.2773C105.273 38.6829 104.708 38.3857 103.941 38.3857ZM127.478 43.6387C127.478 44.5697 127.252 45.3789 126.801 46.0664C126.35 46.7539 125.691 47.2839 124.824 47.6562C123.965 48.0286 122.919 48.2148 121.688 48.2148C121.143 48.2148 120.61 48.179 120.087 48.1074C119.571 48.0358 119.074 47.932 118.594 47.7959C118.121 47.6527 117.67 47.4772 117.24 47.2695V44.1758C117.985 44.5052 118.758 44.8024 119.561 45.0674C120.363 45.3324 121.158 45.4648 121.945 45.4648C122.49 45.4648 122.926 45.3932 123.256 45.25C123.592 45.1068 123.836 44.9098 123.986 44.6592C124.137 44.4085 124.212 44.1221 124.212 43.7998C124.212 43.4059 124.079 43.0693 123.814 42.79C123.549 42.5107 123.184 42.2493 122.719 42.0059C122.26 41.7624 121.741 41.501 121.161 41.2217C120.796 41.0498 120.398 40.8421 119.969 40.5986C119.539 40.348 119.131 40.0436 118.744 39.6855C118.357 39.3275 118.039 38.8942 117.788 38.3857C117.545 37.8701 117.423 37.2542 117.423 36.5381C117.423 35.5999 117.638 34.7979 118.067 34.1318C118.497 33.4658 119.109 32.9574 119.904 32.6064C120.706 32.2484 121.652 32.0693 122.74 32.0693C123.557 32.0693 124.334 32.166 125.071 32.3594C125.816 32.5456 126.593 32.8177 127.402 33.1758L126.328 35.7646C125.605 35.471 124.957 35.2454 124.384 35.0879C123.811 34.9232 123.227 34.8408 122.633 34.8408C122.217 34.8408 121.863 34.9089 121.569 35.0449C121.276 35.1738 121.054 35.36 120.903 35.6035C120.753 35.8398 120.678 36.1156 120.678 36.4307C120.678 36.8031 120.785 37.1182 121 37.376C121.222 37.6266 121.551 37.8701 121.988 38.1064C122.432 38.3428 122.984 38.6185 123.643 38.9336C124.445 39.3132 125.129 39.7106 125.694 40.126C126.267 40.5342 126.708 41.0176 127.016 41.5762C127.324 42.1276 127.478 42.8151 127.478 43.6387ZM135.126 45.6045C135.484 45.6045 135.831 45.5687 136.168 45.4971C136.512 45.4255 136.852 45.3359 137.188 45.2285V47.667C136.838 47.8245 136.401 47.9535 135.878 48.0537C135.362 48.1611 134.797 48.2148 134.181 48.2148C133.465 48.2148 132.82 48.1003 132.247 47.8711C131.681 47.6348 131.234 47.2301 130.904 46.6572C130.582 46.0771 130.421 45.2715 130.421 44.2402V38.4502H128.853V37.0645L130.657 35.9688L131.603 33.4336H133.697V35.9902H137.06V38.4502H133.697V44.2402C133.697 44.6986 133.826 45.0423 134.084 45.2715C134.349 45.4935 134.696 45.6045 135.126 45.6045ZM150.541 41.9736C150.541 42.9762 150.405 43.8643 150.133 44.6377C149.868 45.4111 149.478 46.0664 148.962 46.6035C148.453 47.1335 147.838 47.5345 147.114 47.8066C146.398 48.0788 145.589 48.2148 144.687 48.2148C143.841 48.2148 143.064 48.0788 142.355 47.8066C141.654 47.5345 141.041 47.1335 140.519 46.6035C140.003 46.0664 139.602 45.4111 139.315 44.6377C139.036 43.8643 138.896 42.9762 138.896 41.9736C138.896 40.6416 139.133 39.5137 139.605 38.5898C140.078 37.666 140.751 36.9642 141.625 36.4844C142.499 36.0046 143.541 35.7646 144.751 35.7646C145.875 35.7646 146.871 36.0046 147.737 36.4844C148.611 36.9642 149.295 37.666 149.789 38.5898C150.29 39.5137 150.541 40.6416 150.541 41.9736ZM142.237 41.9736C142.237 42.7614 142.323 43.4238 142.495 43.9609C142.667 44.498 142.936 44.9027 143.301 45.1748C143.666 45.4469 144.142 45.583 144.729 45.583C145.31 45.583 145.779 45.4469 146.137 45.1748C146.502 44.9027 146.767 44.498 146.932 43.9609C147.104 43.4238 147.189 42.7614 147.189 41.9736C147.189 41.1787 147.104 40.5199 146.932 39.9971C146.767 39.4671 146.502 39.0697 146.137 38.8047C145.771 38.5397 145.295 38.4072 144.708 38.4072C143.841 38.4072 143.211 38.7044 142.817 39.2988C142.431 39.8932 142.237 40.7848 142.237 41.9736ZM159.951 35.7646C160.116 35.7646 160.306 35.7754 160.521 35.7969C160.743 35.8112 160.922 35.8327 161.058 35.8613L160.811 38.9336C160.703 38.8978 160.549 38.8727 160.349 38.8584C160.155 38.8369 159.987 38.8262 159.844 38.8262C159.421 38.8262 159.009 38.8799 158.608 38.9873C158.215 39.0947 157.86 39.2702 157.545 39.5137C157.23 39.75 156.979 40.0651 156.793 40.459C156.614 40.8457 156.524 41.3219 156.524 41.8877V48H153.248V35.9902H155.729L156.213 38.0098H156.374C156.61 37.6016 156.904 37.2292 157.255 36.8926C157.613 36.5488 158.018 36.2767 158.469 36.0762C158.927 35.8685 159.421 35.7646 159.951 35.7646ZM168.19 35.7646C169.3 35.7646 170.257 35.9795 171.059 36.4092C171.861 36.8317 172.48 37.4476 172.917 38.2568C173.354 39.0661 173.572 40.0544 173.572 41.2217V42.8115H165.827C165.863 43.7354 166.139 44.4622 166.654 44.9922C167.177 45.515 167.9 45.7764 168.824 45.7764C169.59 45.7764 170.292 45.6976 170.93 45.54C171.567 45.3825 172.222 45.1462 172.896 44.8311V47.3662C172.301 47.6598 171.678 47.8747 171.026 48.0107C170.382 48.1468 169.598 48.2148 168.674 48.2148C167.471 48.2148 166.404 47.9928 165.473 47.5488C164.549 47.1048 163.822 46.4281 163.292 45.5186C162.769 44.609 162.508 43.4632 162.508 42.0811C162.508 40.6774 162.744 39.5101 163.217 38.5791C163.697 37.641 164.363 36.9391 165.215 36.4736C166.067 36.001 167.059 35.7646 168.19 35.7646ZM168.212 38.0957C167.575 38.0957 167.045 38.2998 166.622 38.708C166.207 39.1162 165.967 39.7572 165.902 40.6309H170.5C170.493 40.1439 170.403 39.7106 170.231 39.3311C170.067 38.9515 169.816 38.6507 169.479 38.4287C169.15 38.2067 168.728 38.0957 168.212 38.0957Z" fill="white"/>
<path d="M47.7291 24.2736C47.5177 24.4356 43.7849 26.5131 43.7849 31.1323C43.7849 36.4753 48.5348 38.3654 48.6769 38.4122C48.6551 38.5275 47.9224 41.0009 46.1726 43.5212C44.6124 45.739 42.9829 47.9532 40.504 47.9532C38.0252 47.9532 37.3872 46.5311 34.5256 46.5311C31.7369 46.5311 30.7454 48 28.478 48C26.2105 48 24.6284 45.9478 22.8094 43.4275C20.7024 40.468 19 35.8704 19 31.5068C19 24.5077 23.6077 20.7957 28.1426 20.7957C30.5522 20.7957 32.5608 22.3582 34.0736 22.3582C35.5135 22.3582 37.7591 20.7021 40.5004 20.7021C41.5393 20.7021 45.2722 20.7957 47.7291 24.2736ZM39.199 17.739C40.3327 16.4104 41.1347 14.5671 41.1347 12.7237C41.1347 12.468 41.1128 12.2088 41.0654 12C39.2209 12.0684 37.0263 13.2133 35.7031 14.7291C34.6641 15.8956 33.6945 17.739 33.6945 19.6076C33.6945 19.8884 33.7419 20.1692 33.7637 20.2592C33.8804 20.2808 34.07 20.306 34.2595 20.306C35.9145 20.306 37.996 19.2115 39.199 17.739Z" fill="white"/>
</svg>
